<svg width="50" height="30" viewBox="0 0 50 30" fill="none" xmlns="http://www.w3.org/2000/svg">
<rect width="49.0972" height="30" rx="15" fill="#9200E1"/>
<mask id="mask0_474_2477" style="mask-type:alpha" maskUnits="userSpaceOnUse" x="6" y="6" width="38" height="18">
<path d="M43.0972 15.4628C42.8632 20.2171 38.9343 24 34.1216 24C29.1586 24 25.1351 19.9765 25.1351 15.0133C25.1351 10.0501 29.1586 6.02676 34.1216 6.02676C38.7816 6.02676 42.613 9.57354 43.064 14.1148H38.9828C38.5603 11.814 36.5446 10.0708 34.1218 10.0708C31.392 10.0708 29.1791 12.2836 29.1791 15.0133C29.1791 17.7432 31.392 19.956 34.1218 19.956C36.2175 19.956 38.0084 18.6517 38.7274 16.8108H31.8751V15.4628H43.0972Z" fill="#FFFBF6"/>
<path d="M8.95766 21.651C12.4851 24.8473 17.9381 24.7439 21.3411 21.3411C24.8505 17.8316 24.8505 12.1416 21.3411 8.63208C17.8315 5.12264 12.1416 5.12264 8.63211 8.63208C5.33708 11.9272 5.13574 17.1443 8.02806 20.6743L10.9138 17.7886C9.58583 15.8629 9.77845 13.2049 11.4916 11.4917C13.4219 9.56146 16.5514 9.56146 18.4816 11.4917C20.4117 13.4219 20.4117 16.5514 18.4816 18.4816C16.9997 19.9635 14.811 20.3078 13.0008 19.5142L17.8461 14.6688L16.893 13.7158L8.95766 21.651Z" fill="#FFFBF6"/>
</mask>
<g mask="url(#mask0_474_2477)">
<rect x="6" y="3.75" width="37.125" height="21.9375" rx="10.9688" fill="white"/>
</g>
</svg>
