<svg width="273" height="201" viewBox="0 0 273 201" fill="none" xmlns="http://www.w3.org/2000/svg">
<g clip-path="url(#clip0_504_53970)">
<path d="M172.511 75.3435H224.347C217.508 33.0825 180.857 0.809998 136.664 0.809998C92.4718 0.809998 55.8198 33.0825 48.9758 75.3435H101.204C115.305 75.3435 126.714 86.8119 126.648 100.913L126.278 177.89C129.684 178.287 133.15 178.499 136.664 178.499C140.179 178.499 143.905 178.276 147.442 177.846L147.072 100.913C147.006 86.8119 158.415 75.3435 172.516 75.3435H172.511Z" fill="#FC7115"/>
<path d="M101.209 75.3435H0.926147L25.125 100.369H101.628L101.285 171.165L101.258 176.557L126.17 200.815L126.278 177.89L126.648 100.913C126.714 86.8118 115.305 75.3435 101.204 75.3435H101.209Z" fill="#1E1E1E"/>
<path d="M224.353 75.3435H172.516C158.415 75.3435 147.006 86.8118 147.072 100.913L147.442 177.846L147.55 200.815L172.462 176.557L172.435 170.997L172.092 100.375H248.595L272.794 75.3489H224.353V75.3435Z" fill="#1E1E1E"/>
</g>
<defs>
<clipPath id="clip0_504_53970">
<rect width="271.868" height="200" fill="white" transform="translate(0.926147 0.809998)"/>
</clipPath>
</defs>
</svg>
