<svg width="680" height="560" viewBox="0 0 680 560" xmlns="http://www.w3.org/2000/svg" style="font-family: sans-serif; background: white;">
  <defs>
    <marker id="arrow" viewBox="0 0 10 10" refX="8" refY="5" markerWidth="6" markerHeight="6" orient="auto-start-reverse">
      <path d="M2 1L8 5L2 9" fill="none" stroke="context-stroke" stroke-width="1.5" stroke-linecap="round" stroke-linejoin="round"/>
    </marker>
  </defs>

  <rect x="260" y="30" width="160" height="44" rx="8" fill="#EEEDFE" stroke="#534AB7" stroke-width="0.5"/>
  <text x="340" y="52" text-anchor="middle" dominant-baseline="central" font-size="14" font-weight="500" fill="#3C3489">Client</text>

  <rect x="22" y="170" width="100" height="44" rx="8" fill="#E1F5EE" stroke="#0F6E56" stroke-width="0.5"/>
  <text x="72" y="192" text-anchor="middle" dominant-baseline="central" font-size="14" font-weight="500" fill="#085041">API server</text>

  <rect x="134" y="170" width="72" height="44" rx="8" fill="#F1EFE8" stroke="#5F5E5A" stroke-width="0.5"/>
  <text x="170" y="192" text-anchor="middle" dominant-baseline="central" font-size="14" font-weight="500" fill="#444441">Driver</text>

  <rect x="218" y="170" width="100" height="44" rx="8" fill="#E6F1FB" stroke="#185FA5" stroke-width="0.5"/>
  <text x="268" y="192" text-anchor="middle" dominant-baseline="central" font-size="14" font-weight="500" fill="#0C447C">Input driver</text>

  <rect x="330" y="170" width="72" height="44" rx="8" fill="#F1EFE8" stroke="#5F5E5A" stroke-width="0.5"/>
  <text x="366" y="192" text-anchor="middle" dominant-baseline="central" font-size="14" font-weight="500" fill="#444441">Driver</text>

  <rect x="414" y="170" width="106" height="44" rx="8" fill="#E6F1FB" stroke="#185FA5" stroke-width="0.5"/>
  <text x="467" y="192" text-anchor="middle" dominant-baseline="central" font-size="14" font-weight="500" fill="#0C447C">Output driver</text>

  <rect x="532" y="170" width="72" height="44" rx="8" fill="#F1EFE8" stroke="#5F5E5A" stroke-width="0.5"/>
  <text x="568" y="192" text-anchor="middle" dominant-baseline="central" font-size="14" font-weight="500" fill="#444441">Driver</text>

  <rect x="22" y="360" width="582" height="60" rx="8" fill="#FAECE7" stroke="#993C1D" stroke-width="0.5"/>
  <text x="313" y="390" text-anchor="middle" dominant-baseline="central" font-size="14" font-weight="500" fill="#712B13">State machine</text>

  <style>
    .arr { fill: none; stroke: #888780; stroke-width: 1.2; }
    .arr-dash { fill: none; stroke: #888780; stroke-width: 1.2; stroke-dasharray: 5 3; }
    .lbl { font-family: sans-serif; font-size: 12px; fill: #5F5E5A; }
  </style>

  <path class="arr" d="M272 74 L100 170" marker-end="url(#arrow)"/>
  <text class="lbl" x="166" y="114" text-anchor="middle" transform="rotate(-30,166,114)">trade request</text>

  <path class="arr-dash" d="M122 170 L300 74" marker-end="url(#arrow)"/>
  <text class="lbl" x="228" y="108" text-anchor="middle" transform="rotate(-30,228,108)">trade response</text>

  <path class="arr" d="M72 214 L72 360" marker-end="url(#arrow)"/>
  <text class="lbl" x="34" y="295" text-anchor="middle" transform="rotate(-90,34,295)">trade registration</text>

  <path class="arr" d="M322 74 L268 170" marker-end="url(#arrow)"/>
  <text class="lbl" x="318" y="122" text-anchor="middle">deposit</text>

  <path class="arr" d="M268 214 L268 360" marker-end="url(#arrow)"/>
  <text class="lbl" x="230" y="295" text-anchor="middle" transform="rotate(-90,230,295)">input confirmation</text>

  <path class="arr" d="M467 360 L467 214" marker-end="url(#arrow)"/>
  <text class="lbl" x="506" y="290" text-anchor="middle" transform="rotate(-90,506,290)">output order</text>

  <path class="arr-dash" d="M482 170 L400 74" marker-end="url(#arrow)"/>
  <text class="lbl" x="464" y="116" text-anchor="middle" transform="rotate(28,464,116)">payout</text>
</svg>
